<?xml version="1.0" encoding="UTF-8" standalone="no"?>
<svg
   xmlns:dc="http://purl.org/dc/elements/1.1/"
   xmlns:cc="http://creativecommons.org/ns#"
   xmlns:rdf="http://www.w3.org/1999/02/22-rdf-syntax-ns#"
   xmlns:svg="http://www.w3.org/2000/svg"
   xmlns="http://www.w3.org/2000/svg"
   viewBox="0 0 63.437374 63.4375"
   height="63.4375"
   width="63.437374"
   xml:space="preserve"
   version="1.1"
   id="svg2"><metadata
     id="metadata8"><rdf:RDF><cc:Work
         rdf:about=""><dc:format>image/svg+xml</dc:format><dc:type
           rdf:resource="http://purl.org/dc/dcmitype/StillImage" /></cc:Work></rdf:RDF></metadata><defs
     id="defs6"><clipPath
       id="clipPath16"
       clipPathUnits="userSpaceOnUse"><path
         id="path18"
         d="m 0,50.75 50.75,0 L 50.75,0 0,0 0,50.75 Z" /></clipPath></defs><g
     transform="matrix(1.25,0,0,-1.25,0,63.4375)"
     id="g10"><g
       id="g12"><g
         clip-path="url(#clipPath16)"
         id="g14"><g
           transform="translate(49.8266,25.3738)"
           id="g20"><path
             id="path22"
             style="fill:#ffffff;fill-opacity:1;fill-rule:nonzero;stroke:none"
             d="m 0,0 c 0,-13.502 -10.946,-24.448 -24.448,-24.448 -13.502,0 -24.448,10.946 -24.448,24.448 0,13.502 10.946,24.448 24.448,24.448 C -10.946,24.448 0,13.502 0,0" /></g><g
           transform="translate(26.7988,18.1483)"
           id="g24"><path
             id="path26"
             style="fill:#2a7586;fill-opacity:1;fill-rule:nonzero;stroke:none"
             d="m 0,0 -4.65,10.221 c -0.291,0.623 -1.108,0.619 -1.393,-0.007 L -6.551,9.102 C -6.661,8.859 -6.659,8.574 -6.546,8.333 L -2.718,0 0,0 Z" /></g><g
           transform="translate(16.1155,18.1458)"
           id="g28"><path
             id="path30"
             style="fill:#73bf50;fill-opacity:1;fill-rule:nonzero;stroke:none"
             d="m 0,0 4.648,10.239 c 0.276,0.606 1.1,0.597 1.381,-0.005 L 6.557,9.071 c 0.109,-0.234 0.108,-0.51 0,-0.743 L 2.725,0.003 0,0 Z" /></g><g
           transform="translate(13.4139,24.1062)"
           id="g32"><path
             id="path34"
             style="fill:#373536;fill-opacity:1;fill-rule:nonzero;stroke:none"
             d="M 0,0 C 1.075,0 1.613,0.642 1.613,1.3 1.613,1.957 1.075,2.614 0,2.614 l -2.002,0 L -2.002,0 0,0 Z m 0.194,4.795 c 2.51,0 3.749,-1.747 3.749,-3.495 0,-1.748 -1.239,-3.481 -3.749,-3.481 l -2.196,0 0,-3.779 -2.33,0 0,9.62 c 0,0.718 0.313,1.135 1.12,1.135 l 3.406,0 z" /></g><path
           id="path36"
           style="fill:#373536;fill-opacity:1;fill-rule:nonzero;stroke:none"
           d="m 30.583,18.146 -2.33,0 0,10.756 2.33,0 0,-10.756 z" /><g
           transform="translate(35.1774,26.7202)"
           id="g38"><path
             id="path40"
             style="fill:#373536;fill-opacity:1;fill-rule:nonzero;stroke:none"
             d="m 0,0 0,-6.393 1.165,0 c 1.987,0 3.003,1.598 3.003,3.196 C 4.168,-1.598 3.152,0 1.165,0 L 0,0 Z m -1.21,-8.574 c -0.807,0 -1.12,0.418 -1.12,1.135 l 0,8.485 c 0,0.718 0.313,1.135 1.12,1.135 l 2.525,0 c 3.451,0 5.184,-2.688 5.184,-5.378 0,-2.688 -1.733,-5.377 -5.184,-5.377 l -2.525,0 z" /></g><g
           transform="translate(25.6248,16.8064)"
           id="g42"><path
             id="path44"
             style="fill:#373536;fill-opacity:1;fill-rule:nonzero;stroke:none"
             d="m 0,0 0,-7.005 c 0,-2.585 -2.095,-3.855 -4.19,-3.855 -2.095,0 -4.176,1.27 -4.176,3.855 l 0,7.005 2.193,0 0,-6.767 c 0,-1.284 0.985,-1.912 1.983,-1.912 0.998,0 1.997,0.628 1.997,1.912 L -2.193,0 0,0 Z" /></g><g
           transform="translate(32.5846,12.0113)"
           id="g46"><path
             id="path48"
             style="fill:#373536;fill-opacity:1;fill-rule:nonzero;stroke:none"
             d="M 0,0 C 1.075,0 1.613,0.642 1.613,1.3 1.613,1.957 1.075,2.614 0,2.614 l -2.002,0 L -2.002,0 0,0 Z m 0.194,4.795 c 2.51,0 3.749,-1.747 3.749,-3.495 0,-1.748 -1.239,-3.481 -3.749,-3.481 l -2.196,0 0,-3.779 -2.33,0 0,10.755 4.526,0 z" /></g><g
           transform="translate(25.38,3)"
           id="g50"><path
             id="path52"
             style="fill:#43bce0;fill-opacity:1;fill-rule:nonzero;stroke:none"
             d="m 0,0 c -12.36,0 -22.38,10.02 -22.38,22.37 0,2.13 0.3,4.2 0.86,6.15 l 43.05,-0.06 c 0.55,-1.94 0.84,-3.98 0.84,-6.09 C 22.37,10.02 12.36,0 0,0 M 0,47.75 C -14.02,47.75 -25.38,36.39 -25.38,22.37 -25.38,8.36 -14.02,-3 0,-3 14.01,-3 25.37,8.36 25.37,22.37 25.37,36.39 14.01,47.75 0,47.75" /></g><g
           transform="translate(18.0876,34.6415)"
           id="g54"><path
             id="path56"
             style="fill:#ffffff;fill-opacity:1;fill-rule:nonzero;stroke:none"
             d="m 0,0 c -1.675,0 -3.338,1.047 -3.338,3.166 l 0,2.606 c 0,2.106 1.629,3.166 3.269,3.166 1.432,0 2.876,-0.816 3.211,-2.436 L 1.351,6.04 c -0.162,0.743 -0.797,1.12 -1.42,1.12 -0.74,0 -1.468,-0.512 -1.468,-1.51 l 0,-2.362 c 0,-1.011 0.763,-1.51 1.537,-1.51 0.762,0 1.536,0.499 1.536,1.51 l 0,0.158 -1.617,0 0,1.705 2.379,0 c 0.705,0 1.04,-0.304 1.04,-1.084 l 0,-0.901 C 3.338,1.047 1.663,0 0,0" /></g><g
           transform="translate(28.6286,34.727)"
           id="g58"><path
             id="path60"
             style="fill:#ffffff;fill-opacity:1;fill-rule:nonzero;stroke:none"
             d="m 0,0 -5.083,0 c -0.624,0 -0.866,0.341 -0.866,0.925 l 0,6.917 c 0,0.584 0.242,0.925 0.866,0.925 l 4.91,0 0,-1.778 -3.974,0 0,-1.717 3.627,0 0,-1.777 -3.627,0 0,-1.717 L 0,1.778 0,0 Z" /></g><g
           transform="translate(35.6012,41.7162)"
           id="g62"><path
             id="path64"
             style="fill:#ffffff;fill-opacity:1;fill-rule:nonzero;stroke:none"
             d="m 0,0 -2.148,0 0,-6.989 -1.803,0 0,6.989 -2.148,0 0,1.778 L 0,1.778 0,0 Z" /></g></g></g></g></svg>